<?xml version="1.0" standalone="no"?>
<!DOCTYPE svg PUBLIC "-//W3C//DTD SVG 20010904//EN"
 "http://www.w3.org/TR/2001/REC-SVG-20010904/DTD/svg10.dtd">
<svg version="1.0" xmlns="http://www.w3.org/2000/svg"
 width="351.000000pt" height="351.000000pt" viewBox="0 0 351.000000 351.000000"
 preserveAspectRatio="xMidYMid meet">
<metadata>
Created by potrace 1.15, written by Peter Selinger 2001-2017
</metadata>
<g transform="translate(0.000000,351.000000) scale(0.100000,-0.100000)"
fill="#000000" stroke="none">
<path d="M0 1755 l0 -1755 1755 0 1755 0 0 1755 0 1755 -1755 0 -1755 0 0
-1755z m2185 1136 c143 -36 309 -105 370 -153 l24 -18 -2 -210 c-1 -116 -4
-210 -7 -209 -3 0 -25 32 -50 72 -56 88 -183 219 -270 275 -343 223 -778 131
-1041 -221 -99 -133 -176 -308 -215 -489 -23 -102 -26 -400 -6 -493 23 -105
62 -226 102 -311 54 -117 189 -309 166 -237 -4 12 -2 50 4 85 27 147 126 280
258 345 74 37 79 38 181 38 124 -1 174 -18 240 -84 46 -46 60 -95 40 -142 -26
-63 -122 -91 -167 -49 -30 28 -28 44 14 89 49 55 46 96 -11 128 -84 48 -220
19 -295 -63 -77 -84 -129 -232 -117 -336 17 -141 147 -260 331 -303 273 -65
595 93 785 383 30 45 55 82 55 82 1 0 1 -97 1 -215 0 -177 -3 -217 -15 -229
-45 -43 -246 -125 -395 -162 -97 -24 -342 -29 -455 -10 -409 72 -751 330 -926
700 -81 172 -114 321 -113 521 0 210 32 358 113 530 176 372 502 622 910 700
106 21 386 13 491 -14z m-494 -278 c-45 -57 -73 -130 -78 -203 -12 -174 99
-290 468 -486 90 -48 202 -107 249 -132 112 -60 175 -120 212 -200 71 -156 35
-333 -114 -557 -24 -35 -46 -65 -49 -65 -3 0 0 24 8 53 9 33 13 84 10 142 -4
96 -20 141 -72 203 -49 58 -246 184 -480 307 -187 98 -287 166 -380 259 -122
122 -160 196 -160 311 0 68 5 88 28 133 55 105 143 180 276 238 105 45 120 44
82 -3z"/>
</g>
</svg>
